# xmcd
#
# Track frame offsets: 
#        150
#        11205
#        28592
#        44867
#        62957
#        76830
#        90645
#        103210
#        116022
#        126167
#
# Disc length: 1861 seconds
#
# Revision: 3
# Processed by: cddbd v1.5.1PL0 Copyright (c) Steve Scherf et al.
# Submitted via: ExactAudioCopy v0.95a5
#
DISCID=8a07430a
DTITLE=Vern Gosdin - Super Hits
DYEAR=1993
DGENRE=Country
TTITLE0=Set 'Em Up Joe
TTITLE1=Chiseled In Stone
TTITLE2=Do You Believe Me Now
TTITLE3=That Just About Does It
TTITLE4=This Ain't My First Rodeo
TTITLE5=Tanqueray
TTITLE6=I'm Still Crazy
TTITLE7=Who You Gonna Blame It On This Time
TTITLE8=Right In The Wrong Direction
TTITLE9=Is It Raining At Your House
EXTD=YEAR: 1993
EXTT0=
EXTT1=
EXTT2=
EXTT3=
EXTT4=
EXTT5=
EXTT6=
EXTT7=
EXTT8=
EXTT9=
PLAYORDER=
